# File created by Blade
# Date/Time:  Wed Jan 21 16:14:13 2015
# Frame Rate: 120.000 fps
#------------------------------------------------------
:FULLY-SPECIFIED
:DEGREES
603
root 18.684300 35.537175 -20.088135 -171.906562 -5.346480 -179.261829
Spine -19.283570 -0.150802 0.486823
Head 11.184190 -2.632140 -1.808735
LeftShoulder -8.830643 -34.350398 16.975071
LeftArm 9.729218 12.658566 -6.631897
LeftForeArm 13.798074 0.000000 -2.360814
LeftHand -10.160301 -0.000000 -4.527808
LeftHandThumb1 -26.253704 0.000000 33.147579
RightShoulder -9.730319 -0.955408 -10.769979
RightArm 7.602952 38.355049 9.529079
RightForeArm -34.427154 0.000000 2.762946
RightHand -4.559551 -0.000000 9.605086
RightHandThumb1 -24.326973 -0.000000 -32.862282
LeftUpLeg -1.233439 6.030873 0.381933
LeftLeg -4.693382 -0.000000 0.000000
LeftFoot -21.085068 24.641029 -12.236197
LeftToeBase 27.276406 -0.000000 -0.000000
RightUpLeg -1.033013 -9.090666 2.080746
RightLeg -3.086646 -0.000000 0.000000
RightFoot -22.027904 -28.538931 14.253847
RightToeBase 23.606486 -0.000000 -0.000000
604
root 18.678724 35.535851 -20.099469 -171.919969 -5.342045 -179.272561
Spine -19.292485 -0.147310 0.496350
Head 11.226606 -2.623808 -1.786860
LeftShoulder -8.886602 -34.339414 16.979968
LeftArm 9.747254 12.634150 -6.618239
LeftForeArm 13.776748 0.000000 -2.360562
LeftHand -10.190308 -0.000000 -4.530923
LeftHandThumb1 -26.253704 0.000000 33.147579
RightShoulder -9.739491 -0.945405 -10.791815
RightArm 7.634550 38.344987 9.547013
RightForeArm -34.433385 0.000000 2.777295
RightHand -4.579095 -0.000000 9.602164
RightHandThumb1 -24.326973 -0.000000 -32.862282
LeftUpLeg -1.199186 6.031612 0.366624
LeftLeg -4.692399 -0.000000 0.000000
LeftFoot -21.114119 24.639842 -12.258709
LeftToeBase 27.285891 -0.000000 -0.000000
RightUpLeg -1.003320 -9.061399 2.057488
RightLeg -3.077380 -0.000000 0.000000
RightFoot -22.048836 -28.563639 14.243763
RightToeBase 23.549396 -0.000000 -0.000000
605
root 18.673058 35.533800 -20.111593 -171.945756 -5.344181 -179.280987
Spine -19.294869 -0.145369 0.507868
Head 11.237946 -2.710514 -1.818055
LeftShoulder -8.927605 -34.321546 16.983191
LeftArm 9.763354 12.603661 -6.614429
LeftForeArm 13.813305 0.000000 -2.362260
LeftHand -10.204309 -0.000000 -4.525144
LeftHandThumb1 -26.253704 0.000000 33.147579
RightShoulder -9.727918 -0.947987 -10.820500
RightArm 7.632271 38.321473 9.555165
RightForeArm -34.429582 -0.000000 2.788537
RightHand -4.582251 -0.000000 9.549643
RightHandThumb1 -24.326973 -0.000000 -32.862282
LeftUpLeg -1.137232 6.006252 0.356665
LeftLeg -4.718709 -0.000000 0.000000
LeftFoot -21.115893 24.667230 -12.241315
LeftToeBase 27.270841 -0.000000 -0.000000
RightUpLeg -0.956097 -9.024580 2.034367
RightLeg -3.075377 -0.000000 0.000000
RightFoot -22.092987 -28.612415 14.268371
RightToeBase 23.590730 -0.000000 -0.000000
606
root 18.668763 35.531879 -20.123406 -171.981240 -5.335897 -179.283636
Spine -19.274154 -0.128474 0.519618
Head 11.258196 -2.735661 -1.810290
LeftShoulder -8.973055 -34.320884 16.988084
LeftArm 9.788979 12.582073 -6.609130
LeftForeArm 13.852155 -0.000000 -2.369369
LeftHand -10.201647 0.000000 -4.540076
LeftHandThumb1 -26.253704 0.000000 33.147579
RightShoulder -9.736517 -0.995718 -10.835477
RightArm 7.663722 38.355465 9.581717
RightForeArm -34.439578 -0.000000 2.802141
RightHand -4.601389 -0.000000 9.517143
RightHandThumb1 -24.326973 -0.000000 -32.862282
LeftUpLeg -1.071628 5.990361 0.356500
LeftLeg -4.730827 -0.000000 0.000000
LeftFoot -21.152120 24.673316 -12.263030
LeftToeBase 27.261747 -0.000000 -0.000000
RightUpLeg -0.902336 -8.984055 2.016060
RightLeg -3.067876 -0.000000 0.000000
RightFoot -22.119862 -28.645956 14.272337
RightToeBase 23.535843 -0.000000 -0.000000
607
root 18.664858 35.529969 -20.134329 -172.014969 -5.329416 -179.291190
Spine -19.252639 -0.104093 0.517697
Head 11.266535 -2.800609 -1.810322
LeftShoulder -8.997788 -34.329544 16.994865
LeftArm 9.799250 12.566486 -6.613363
LeftForeArm 13.868097 -0.000000 -2.366286
LeftHand -10.201638 -0.000000 -4.522388
LeftHandThumb1 -26.253704 0.000000 33.147579
RightShoulder -9.739904 -1.016235 -10.852181
RightArm 7.667248 38.380078 9.591327
RightForeArm -34.509080 -0.000000 2.801758
RightHand -4.611120 -0.000000 9.518767
RightHandThumb1 -24.326973 -0.000000 -32.862282
LeftUpLeg -1.008190 5.975633 0.350985
LeftLeg -4.747497 -0.000000 0.000000
LeftFoot -21.167116 24.689581 -12.259753
LeftToeBase 27.321662 -0.000000 -0.000000
RightUpLeg -0.853423 -8.944753 1.992871
RightLeg -3.055848 -0.000000 0.000000
RightFoot -22.160836 -28.671147 14.287260
RightToeBase 23.515362 -0.000000 -0.000000
608
root 18.660711 35.527756 -20.145309 -172.054830 -5.368056 -179.299492
Spine -19.219299 -0.123124 0.526204
Head 11.264193 -2.846017 -1.821362
LeftShoulder -9.020288 -34.343690 16.997291
LeftArm 9.800058 12.570667 -6.617280
LeftForeArm 13.833437 -0.000000 -2.344877
LeftHand -10.238692 -0.000000 -4.498357
LeftHandThumb1 -26.253704 0.000000 33.147579
RightShoulder -9.757400 -1.049134 -10.871033
RightArm 7.698078 38.359727 9.611460
RightForeArm -34.467232 -0.000000 2.787125
RightHand -4.618255 -0.000000 9.480274
RightHandThumb1 -24.326973 -0.000000 -32.862282
LeftUpLeg -0.956880 5.919830 0.349947
LeftLeg -4.737364 -0.000000 0.000000
LeftFoot -21.205471 24.686762 -12.279780
LeftToeBase 27.307026 -0.000000 -0.000000
RightUpLeg -0.789112 -8.959387 1.974940
RightLeg -3.057646 -0.000000 0.000000
RightFoot -22.184245 -28.708116 14.253229
RightToeBase 23.564127 -0.000000 -0.000000
609
root 18.655948 35.525208 -20.158215 -172.123224 -5.413026 -179.314336
Spine -19.153709 -0.143905 0.525070
Head 11.255415 -2.918814 -1.831224
LeftShoulder -9.034942 -34.326084 16.996832
LeftArm 9.809272 12.551351 -6.629422
LeftForeArm 13.809415 0.000000 -2.335751
LeftHand -10.249669 0.000000 -4.477234
LeftHandThumb1 -26.253704 0.000000 33.147579
RightShoulder -9.765776 -1.068640 -10.890041
RightArm 7.715029 38.391145 9.630839
RightForeArm -34.517854 -0.000000 2.770804
RightHand -4.599312 -0.000000 9.451384
RightHandThumb1 -24.326973 -0.000000 -32.862282
LeftUpLeg -0.870852 5.865251 0.345297
LeftLeg -4.734238 -0.000000 0.000000
LeftFoot -21.234659 24.682003 -12.282452
LeftToeBase 27.348826 -0.000000 -0.000000
RightUpLeg -0.688003 -8.997573 1.944246
RightLeg -3.063572 -0.000000 0.000000
RightFoot -22.204871 -28.719274 14.225194
RightToeBase 23.612922 -0.000000 -0.000000
610
root 18.652208 35.522834 -20.170121 -172.187880 -5.452365 -179.324535
Spine -19.088377 -0.155990 0.527743
Head 11.245618 -2.958902 -1.841740
LeftShoulder -9.022890 -34.321814 16.977541
LeftArm 9.791311 12.543826 -6.626570
LeftForeArm 13.744937 -0.000000 -2.310106
LeftHand -10.232154 -0.000000 -4.461921
LeftHandThumb1 -26.253704 0.000000 33.147579
RightShoulder -9.811455 -1.146542 -10.887040
RightArm 7.794845 38.460322 9.672242
RightForeArm -34.547749 0.000000 2.776703
RightHand -4.595370 0.000000 9.499351
RightHandThumb1 -24.326973 -0.000000 -32.862282
LeftUpLeg -0.791597 5.812033 0.345780
LeftLeg -4.729855 -0.000000 0.000000
LeftFoot -21.274806 24.684646 -12.300747
LeftToeBase 27.333890 -0.000000 -0.000000
RightUpLeg -0.596808 -9.034068 1.922336
RightLeg -3.065202 -0.000000 0.000000
RightFoot -22.239743 -28.723515 14.223008
RightToeBase 23.578297 -0.000000 -0.000000
611
root 18.648391 35.520876 -20.182100 -172.263318 -5.485200 -179.330602
Spine -19.009614 -0.162378 0.531325
Head 11.233501 -3.020151 -1.855222
LeftShoulder -9.026480 -34.326781 16.970884
LeftArm 9.794575 12.529557 -6.638303
LeftForeArm 13.702192 0.000000 -2.304978
LeftHand -10.224655 -0.000000 -4.450565
LeftHandThumb1 -26.253704 0.000000 33.147579
RightShoulder -9.815539 -1.143900 -10.899933
RightArm 7.786700 38.419278 9.669016
RightForeArm -34.537928 -0.000000 2.788751
RightHand -4.581980 -0.000000 9.522489
RightHandThumb1 -24.326973 -0.000000 -32.862282
LeftUpLeg -0.699369 5.785183 0.351838
LeftLeg -4.731980 -0.000000 0.000000
LeftFoot -21.274617 24.676528 -12.276016
LeftToeBase 27.105863 -0.000000 -0.000000
RightUpLeg -0.494437 -9.061173 1.899915
RightLeg -3.066419 -0.000000 0.000000
RightFoot -22.264107 -28.731920 14.245736
RightToeBase 23.550231 -0.000000 -0.000000
612
root 18.645238 35.519344 -20.189783 -172.286235 -5.497587 -179.337211
Spine -18.988394 -0.154721 0.530074
Head 11.221799 -3.052128 -1.858044
LeftShoulder -9.034579 -34.323801 16.976401
LeftArm 9.794281 12.511068 -6.654313
LeftForeArm 13.667741 0.000000 -2.301833
LeftHand -10.213660 -0.000000 -4.450084
LeftHandThumb1 -26.253704 0.000000 33.147579
RightShoulder -9.789370 -1.122105 -10.921208
RightArm 7.736737 38.325008 9.634501
RightForeArm -34.487288 -0.000000 2.772512
RightHand -4.575658 0.000000 9.504180
RightHandThumb1 -24.326973 -0.000000 -32.862282
LeftUpLeg -0.676678 5.769593 0.345948
LeftLeg -4.707426 -0.000000 0.000000
LeftFoot -21.310850 24.681024 -12.279732
LeftToeBase 27.130261 -0.000000 -0.000000
RightUpLeg -0.460029 -9.029625 1.883855
RightLeg -3.057107 -0.000000 0.000000
RightFoot -22.299724 -28.775936 14.239875
RightToeBase 23.614306 -0.000000 -0.000000
613
root 18.641179 35.517543 -20.198882 -172.327549 -5.523160 -179.351391
Spine -18.950530 -0.159122 0.527604
Head 11.212008 -3.086177 -1.861967
LeftShoulder -9.030881 -34.317827 16.963559
LeftArm 9.795832 12.500444 -6.660410
LeftForeArm 13.618812 -0.000000 -2.302946
LeftHand -10.212520 -0.000000 -4.449272
LeftHandThumb1 -26.253704 0.000000 33.147579
RightShoulder -9.779439 -1.147465 -10.941354
RightArm 7.717382 38.290381 9.634076
RightForeArm -34.462616 -0.000000 2.793241
RightHand -4.624127 -0.000000 9.501120
RightHandThumb1 -24.326973 -0.000000 -32.862282
LeftUpLeg -0.627956 5.740098 0.336782
LeftLeg -4.692677 -0.000000 0.000000
LeftFoot -21.330748 24.667543 -12.284476
LeftToeBase 27.106680 -0.000000 -0.000000
RightUpLeg -0.398750 -9.020543 1.857030
RightLeg -3.054861 -0.000000 0.000000
RightFoot -22.330097 -28.816577 14.231929
RightToeBase 23.596896 -0.000000 -0.000000
614
root 18.638553 35.516384 -20.206916 -172.361153 -5.545392 -179.356635
Spine -18.916118 -0.163031 0.527612
Head 11.200297 -3.121451 -1.875027
LeftShoulder -9.047894 -34.317845 16.970106
LeftArm 9.813651 12.482656 -6.678789
LeftForeArm 13.558163 -0.000000 -2.307317
LeftHand -10.218174 -0.000000 -4.457279
LeftHandThumb1 -26.253704 0.000000 33.147579
RightShoulder -9.783399 -1.175859 -10.939633
RightArm 7.738824 38.329648 9.648885
RightForeArm -34.505296 0.000000 2.800837
RightHand -4.630634 0.000000 9.504958
RightHandThumb1 -24.326973 -0.000000 -32.862282
LeftUpLeg -0.590459 5.713180 0.336186
LeftLeg -4.671486 -0.000000 0.000000
LeftFoot -21.369353 24.647016 -12.298600
LeftToeBase 27.358396 -0.000000 -0.000000
RightUpLeg -0.349211 -8.991203 1.842347
RightLeg -3.049426 -0.000000 0.000000
RightFoot -22.365856 -28.852108 14.259868
RightToeBase 23.614728 -0.000000 -0.000000
